# xmcd
#
# Track frame offsets:
#	150
#	24325
#	42960
#	61097
#	72660
#	99392
#	113050
#	123885
#	133152
#	146210
#	164809
#	178205
#	197552
#	214995
#	230275
#	251782
#	266902
#	283700
#	302540
#	323502
#
# Disc length: 4396
#
# Revision: 1
# Processed by: cddbd v1.5.1PL0 Copyright (c) Steve Scherf et al.
# Submitted via: cdripper 1.0.7
# Normalized: r0:DSETVAR1,TDELIM( - )
#
DISCID=32112a14
DTITLE=Various Artist - Sound of One Man Clapping: A Sampler
DYEAR=1998
DGENRE=Blues
TTITLE0=Bran Lillie - Madrid
TTITLE1=Bran Lillie - My Stranger Love
TTITLE2=Gary Cornelius - In the Flood Land
TTITLE3=Gary Cornelius - Snow
TTITLE4=Jo Serrapere - I Will
TTITLE5=Jo Serrapere - You Want to Get with Me
TTITLE6=Bruce Greene - Five Miles of Ellum Wood
TTITLE7=Bruce Greene - Trouble on the Mind
TTITLE8=Bruce Greene - Old Bob
TTITLE9=K.C. Groves - Little Sky
TTITLE10=K.C. Groves - Weedin' Onions
TTITLE11=Chris Buhalis - Footprints in the Snow
TTITLE12=Chris Buhalis - Kenai Dreams
TTITLE13=Jim Roll - Old Love
TTITLE14=Jim Roll - Train
TTITLE15=Gary Cornelius - Everyone Will Remember
TTITLE16=Gary Cornelius - The Borderline
TTITLE17=Brian Lillie And The Squirrel - Stars
TTITLE18=Lisa Hunter - Satisfied
TTITLE19=Lisa Hunter - Back on Solid Ground
EXTD=YEAR: 1998
EXTT0=
EXTT1=
EXTT2=
EXTT3=
EXTT4=
EXTT5=
EXTT6=
EXTT7=
EXTT8=
EXTT9=
EXTT10=
EXTT11=
EXTT12=
EXTT13=
EXTT14=
EXTT15=
EXTT16=
EXTT17=
EXTT18=
EXTT19=
PLAYORDER=
